name Walk6.mot
datacolumns 19
datarows 12
range 1.26600000 1.27700000
endheader

                time	   L_ground_force_vx	   L_ground_force_vy	   L_ground_force_vz	   L_ground_force_px	   L_ground_force_py	   L_ground_force_pz	   R_ground_force_vx	   R_ground_force_vy	   R_ground_force_vz	   R_ground_force_px	   R_ground_force_py	   R_ground_force_pz	   L_ground_torque_x	   L_ground_torque_y	   L_ground_torque_z	   R_ground_torque_x	   R_ground_torque_y	   R_ground_torque_z	
          1.26600000	         -0.00000000	         -0.00000000	          0.00000000	         -0.00000000	          0.00000000	         -0.00000000	        -15.76822966	         82.66972664	          8.48937621	         -0.09514405	          0.00000000	          0.11463433	          0.00000000	         -0.00000000	          0.00000000	          0.00000000	          0.00423511	          0.00000000	
          1.26700000	         -0.00000000	         -0.00000001	          0.00000000	         -0.00000000	          0.00000000	         -0.00000000	        -17.04522210	         89.89974763	          9.03549856	         -0.10056942	          0.00000000	          0.12129580	          0.00000000	          0.00000000	          0.00000000	          0.00000000	          0.00979845	          0.00000000	
          1.26800000	         -0.00000000	         -0.00000001	          0.00000000	         -0.00000000	          0.00000000	         -0.00000000	        -18.37048390	         97.43034078	          9.59505357	         -0.10608359	          0.00000000	          0.12807534	          0.00000000	          0.00000000	          0.00000000	          0.00000000	          0.01583831	          0.00000000	
          1.26900000	         -0.00000000	         -0.00000001	          0.00000000	         -0.00000000	          0.00000000	         -0.00000000	        -19.74302726	        105.25833611	         10.16697854	         -0.11167206	          0.00000000	          0.13495594	          0.00000000	          0.00000000	          0.00000000	          0.00000000	          0.02237400	          0.00000000	
          1.27000000	         -0.00000000	         -0.00000001	          0.00000000	         -0.00000000	          0.00000000	         -0.00000000	        -21.16157735	        113.37904080	         10.75006096	         -0.11731864	          0.00000000	          0.14191855	          0.00000000	          0.00000000	          0.00000000	          0.00000000	          0.02942463	          0.00000000	
          1.27100000	         -0.00000000	         -0.00000001	          0.00000000	         -0.00000000	          0.00000000	         -0.00000000	        -22.62455087	        121.78611713	         11.34292955	         -0.12300542	          0.00000000	          0.14894206	          0.00000000	          0.00000000	          0.00000000	          0.00000000	          0.03700891	          0.00000000	
          1.27200000	         -0.00000000	         -0.00000001	          0.00000000	         -0.00000000	          0.00000000	         -0.00000000	        -24.13003391	        130.47145570	         11.94404522	         -0.12871263	          0.00000000	          0.15600311	          0.00000000	          0.00000000	          0.00000000	          0.00000000	          0.04514512	          0.00000000	
          1.27300000	         -0.00000000	         -0.00000001	          0.00000000	         -0.00000000	          0.00000000	         -0.00000000	        -25.67576924	        139.42505624	         12.55169081	         -0.13441887	          0.00000000	          0.16307635	          0.00000000	          0.00000000	          0.00000000	          0.00000000	          0.05385098	          0.00000000	
          1.27400000	         -0.00000000	         -0.00000001	          0.00000000	         -0.00000000	          0.00000000	         -0.00000000	        -27.25917975	        148.63495054	         13.16395753	         -0.14010192	          0.00000000	          0.17013561	          0.00000000	          0.00000000	          0.00000000	          0.00000000	          0.06314372	          0.00000000	
          1.27500000	         -0.00000000	         -0.00000002	          0.00000000	         -0.00000000	          0.00000000	         -0.00000000	        -28.87743951	        158.08719418	         13.77872752	         -0.14574025	          0.00000000	          0.17715569	          0.00000000	          0.00000000	          0.00000000	          0.00000000	          0.07304020	          0.00000000	
          1.27600000	         -0.00000000	         -0.00000002	          0.00000000	         -0.00000000	          0.00000000	         -0.00000000	        -30.52756981	        167.76592120	         14.39365577	         -0.15131387	          0.00000000	          0.18411354	          0.00000000	          0.00000000	          0.00000000	          0.00000000	          0.08355696	          0.00000000	
          1.27700000	         -0.00000000	         -0.00000002	          0.00000000	         -0.00000000	          0.00000000	         -0.00000000	        -32.20654260	        177.65345875	         15.00615421	         -0.15680459	          0.00000000	          0.19098838	          0.00000000	          0.00000000	          0.00000000	          0.00000000	          0.09471033	          0.00000000	
